HIERARCHY
ROOT Hips
{
	OFFSET 0.000000 0.000000 0.000000
	CHANNELS 6 Xposition Yposition Zposition Xrotation Yrotation Zrotation
	JOINT LeftUpLeg_virtual
	{
		OFFSET 0.000000 0.000000 0.000000
		CHANNELS 3 Xrotation Yrotation Zrotation
		JOINT LeftUpLeg
		{
			OFFSET 15.427100 -6.655098 0.678600
			CHANNELS 3 Xrotation Yrotation Zrotation
			JOINT LeftLeg
			{
				OFFSET 4.081073 -39.591068 13.024000
				CHANNELS 3 Xrotation Yrotation Zrotation
				JOINT LeftFoot
				{
					OFFSET -4.081074 -37.707932 -15.979700
					CHANNELS 3 Xrotation Yrotation Zrotation
					JOINT LeftToeBase
					{
						OFFSET 5.346399 -15.068900 20.645000
						CHANNELS 3 Xrotation Yrotation Zrotation
						JOINT LeftToe_End
						{
							OFFSET 2.754700 0.931300 11.300900
							CHANNELS 3 Xrotation Yrotation Zrotation
							End Site
							{
								OFFSET 0 0 0
							}
						}
					}
				}
			}
		}
	}
	JOINT RightUpLeg_virtual
	{
		OFFSET 0.000000 0.000000 0.000000
		CHANNELS 3 Xrotation Yrotation Zrotation
		JOINT RightUpLeg
		{
			OFFSET -15.569500 -6.655098 0.678600
			CHANNELS 3 Xrotation Yrotation Zrotation
			JOINT RightLeg
			{
				OFFSET -4.081825 -39.591045 13.023800
				CHANNELS 3 Xrotation Yrotation Zrotation
				JOINT RightFoot
				{
					OFFSET 4.081824 -37.707954 -15.979600
					CHANNELS 3 Xrotation Yrotation Zrotation
					JOINT RightToeBase
					{
						OFFSET -5.346400 -15.068900 20.645000
						CHANNELS 3 Xrotation Yrotation Zrotation
						JOINT RightToe_End
						{
							OFFSET -2.754700 0.931300 11.300900
							CHANNELS 3 Xrotation Yrotation Zrotation
							End Site
							{
								OFFSET 0 0 0
							}
						}
					}
				}
			}
		}
	}
	JOINT Spine_virtual
	{
		OFFSET 0.000000 0.000000 0.000000
		CHANNELS 3 Xrotation Yrotation Zrotation
		JOINT Spine
		{
			OFFSET -0.279200 12.230698 -2.892100
			CHANNELS 3 Xrotation Yrotation Zrotation
			JOINT Spine1
			{
				OFFSET -0.232667 10.192268 -1.242267
				CHANNELS 3 Xrotation Yrotation Zrotation
				JOINT Spine1_split
				{
					OFFSET -0.232667 10.192268 -1.242267
					CHANNELS 3 Xrotation Yrotation Zrotation
					JOINT Spine2
					{
						OFFSET -0.232667 10.192268 -1.242267
						CHANNELS 3 Xrotation Yrotation Zrotation
						JOINT Neck_virtual
						{
							OFFSET 0.000000 0.000000 0.000000
							CHANNELS 3 Xrotation Yrotation Zrotation
							JOINT Neck
							{
								OFFSET -0.418800 17.814194 8.416900
								CHANNELS 3 Xrotation Yrotation Zrotation
								JOINT Head
								{
									OFFSET 0.000000 7.031097 3.806800
									CHANNELS 3 Xrotation Yrotation Zrotation
									JOINT HeadTop_End
									{
										OFFSET 0.000000 24.646606 12.978600
										CHANNELS 3 Xrotation Yrotation Zrotation
										End Site
										{
											OFFSET 0 0 0
										}
									}
								}
							}
						}
						JOINT LeftShoulder_virtual
						{
							OFFSET 0.000000 0.000000 0.000000
							CHANNELS 3 Xrotation Yrotation Zrotation
							JOINT LeftShoulder
							{
								OFFSET 8.476499 7.247704 -3.868750
								CHANNELS 3 Xrotation Yrotation Zrotation
								JOINT LeftShoulder_split
								{
									OFFSET 8.476499 7.247704 -3.868750
									CHANNELS 3 Xrotation Yrotation Zrotation
									JOINT LeftArm
									{
										OFFSET 9.308998 -2.777710 0.208600
										CHANNELS 3 Xrotation Yrotation Zrotation
										JOINT LeftForeArm
										{
											OFFSET 29.972298 0.000000 0.000000
											CHANNELS 3 Xrotation Yrotation Zrotation
											JOINT LeftHand
											{
												OFFSET 26.026505 0.000000 0.000000
												CHANNELS 3 Xrotation Yrotation Zrotation
												End Site
												{
													OFFSET 0 0 0
												}
											}
										}
									}
								}
							}
						}
						JOINT RightShoulder_virtual
						{
							OFFSET 0.000000 0.000000 0.000000
							CHANNELS 3 Xrotation Yrotation Zrotation
							JOINT RightShoulder
							{
								OFFSET -7.570500 7.247704 -3.868750
								CHANNELS 3 Xrotation Yrotation Zrotation
								JOINT RightShoulder_split
								{
									OFFSET -7.570500 7.247704 -3.868750
									CHANNELS 3 Xrotation Yrotation Zrotation
									JOINT RightArm
									{
										OFFSET -9.308998 -2.777710 0.208500
										CHANNELS 3 Xrotation Yrotation Zrotation
										JOINT RightForeArm
										{
											OFFSET -29.972300 0.000000 0.000000
											CHANNELS 3 Xrotation Yrotation Zrotation
											JOINT RightHand
											{
												OFFSET -26.026505 0.000000 0.000000
												CHANNELS 3 Xrotation Yrotation Zrotation
												End Site
												{
													OFFSET 0 0 0
												}
											}
										}
									}
								}
							}
						}
					}
				}
			}
		}
	}
}
MOTION
Frames: 4
Frame Time: 0.03333333
-7.124430 83.099777 2.737328 0.000000 0.000000 0.000000 -19.593429 -66.623475 -19.680060 -31.804544 -0.141147 29.616622 39.961340 9.014089 -8.096733 0.383404 2.732860 -13.472234 1.599183 2.524092 1.027322 0.000000 0.000000 0.000000 -19.830780 -59.723598 -16.658895 -17.657168 -22.031014 -24.458093 36.041426 -9.628597 2.174852 -12.674308 -3.415148 13.058651 -8.727758 -4.163182 8.090719 0.000000 0.000000 0.000000 -28.555397 -62.818616 -24.109156 6.453196 13.812301 3.798879 3.157186 2.491113 1.494328 0.154665 3.945606 0.518935 0.000000 0.000000 0.000000 13.884109 5.513775 -2.003353 12.037706 7.255693 -2.978671 25.713099 44.138568 -14.459034 0.000000 0.000000 0.000000 14.167016 4.872654 -1.673816 9.969011 -11.153398 -6.675978 -2.093338 -14.909080 -4.542943 2.862881 -12.290639 -36.299194 -86.747480 8.006864 -79.526809 0.000000 0.000000 0.000000 14.331791 6.184893 0.000623 3.467715 5.855223 -10.592217 -1.416196 -3.206641 -11.436083 -10.953091 31.881619 41.380715 -67.104245 74.448912 55.818703 0.000000 0.000000 0.000000 
-7.152201 83.087280 4.474709 0.000000 0.000000 0.000000 -19.404791 -66.637948 -19.433427 -31.738632 0.881045 29.973479 40.231764 8.591427 -8.155467 -0.488637 2.665808 -13.346174 1.044184 2.353003 1.705719 0.000000 0.000000 0.000000 -19.015119 -60.083262 -16.050337 -18.127435 -21.261400 -24.097850 36.705723 -9.595600 1.625106 -12.360325 -4.347767 12.867305 -8.043807 -4.268450 8.541279 0.000000 0.000000 0.000000 -26.824740 -62.919067 -22.879262 6.575722 13.658099 3.737229 3.654471 2.747904 1.580620 -0.037484 5.127044 0.405763 0.000000 0.000000 0.000000 13.983714 5.858951 -2.014212 11.761781 7.226036 -2.729291 25.092392 44.690542 -14.947034 0.000000 0.000000 0.000000 14.566869 5.222901 -1.781431 10.170832 -10.990564 -6.086645 -3.706020 -12.537824 -5.890900 1.463926 -10.415519 -37.274115 -86.599736 8.641525 -79.153116 0.000000 0.000000 0.000000 15.036912 6.623120 -0.074187 3.276441 7.754239 -11.003220 -2.092649 -1.915824 -11.201573 -10.597738 33.280582 42.018771 -69.603268 74.773332 58.185514 0.000000 0.000000 0.000000 
-6.767050 82.862190 6.394596 0.000000 0.000000 0.000000 -18.524542 -65.579515 -18.362999 -32.630300 2.529726 29.659034 41.252150 7.723929 -8.372086 -2.906644 3.060697 -12.146694 0.171605 2.153961 2.574697 0.000000 0.000000 0.000000 -17.546426 -59.479446 -14.701854 -18.931097 -19.977832 -23.178114 37.748147 -8.937346 0.762688 -11.869789 -5.633802 12.933559 -7.278727 -4.111143 8.582562 0.000000 0.000000 0.000000 -23.879108 -62.708438 -20.365444 6.887361 13.532364 4.103041 3.735689 3.852068 1.470657 -0.331364 5.850028 0.434595 0.000000 0.000000 0.000000 14.068548 6.971540 -2.202593 10.651010 7.558450 -2.902341 23.917118 45.638050 -16.171661 0.000000 0.000000 0.000000 14.518744 6.456197 -2.057573 10.239010 -11.002857 -5.096774 -4.449891 -10.519890 -6.717871 -1.454208 -7.605890 -39.275084 -87.126487 8.920802 -79.530525 0.000000 0.000000 0.000000 15.662529 7.869776 -0.432064 3.386698 10.562760 -10.921854 -2.640001 -2.022768 -12.184543 -8.875217 35.181031 41.944943 -71.896525 74.759863 60.317954 0.000000 0.000000 0.000000 
-6.196407 82.557693 8.100994 0.000000 0.000000 0.000000 -17.063747 -63.753327 -16.666852 -34.063895 4.355860 28.512058 42.723513 6.454144 -8.517429 -5.928940 3.654220 -10.305256 -0.718755 1.930008 3.333622 0.000000 0.000000 0.000000 -15.898840 -58.241330 -13.069780 -20.204984 -18.266863 -21.804595 39.133907 -7.617712 -0.337908 -11.161254 -6.928915 13.589663 -6.736409 -3.708471 8.136230 0.000000 0.000000 0.000000 -20.199660 -62.160022 -17.096571 7.158716 13.360137 4.787064 3.421260 5.479508 1.285891 -0.476912 5.606151 0.288235 0.000000 0.000000 0.000000 14.195257 8.577901 -2.468068 8.938529 8.290804 -3.217105 22.583971 46.644386 -17.920637 0.000000 0.000000 0.000000 14.253969 8.245509 -2.453771 10.232621 -11.402510 -3.814912 -4.166976 -9.065892 -7.258999 -5.656365 -4.982310 -41.941425 -87.543723 8.930999 -80.007033 0.000000 0.000000 0.000000 16.173924 9.626242 -0.995318 3.736115 13.636645 -10.365108 -3.228602 -3.859671 -13.097855 -6.611303 36.724875 41.545940 -74.840924 74.512576 63.079427 0.000000 0.000000 0.000000 
